<svg width="37" height="34" viewBox="0 0 37 34" fill="none" xmlns="http://www.w3.org/2000/svg">
<path d="M13.6175 7.25037H7.2226C5.04462 7.25037 3.95482 7.25037 3.12294 7.70454C2.3912 8.10403 1.7967 8.74103 1.42386 9.52508C1 10.4164 1 11.5842 1 13.9178V25.5852C1 27.9189 1 29.0841 1.42386 29.9755C1.7967 30.7595 2.3912 31.3986 3.12294 31.7981C3.954 32.2519 5.04249 32.2519 7.21621 32.2519H29.7838C31.9575 32.2519 33.0444 32.2519 33.8755 31.7981C34.6072 31.3986 35.2037 30.7595 35.5766 29.9755C36 29.085 36 27.9204 36 25.5912V13.911C36 11.5819 36 10.4156 35.5766 9.52508C35.2037 8.74103 34.6072 8.10403 33.8755 7.70454C33.0436 7.25037 31.9561 7.25037 29.7782 7.25037H23.3822M13.6175 7.25037H13.7376M13.6175 7.25037C13.6418 7.25038 13.6674 7.25038 13.6944 7.25038L13.7376 7.25037M13.6175 7.25037C13.4111 7.25028 13.2955 7.24913 13.204 7.23816C12.0615 7.1011 11.2779 5.93587 11.5178 4.73114C11.5402 4.61902 11.5843 4.47717 11.6717 4.19627L11.6755 4.18438C11.7753 3.86356 11.8252 3.70315 11.8803 3.56159C12.4447 2.11233 13.7229 1.12673 15.1846 1.01128C15.3273 1 15.4842 1 15.7998 1H21.2C21.5156 1 21.6738 1 21.8166 1.01128C23.2782 1.12673 24.555 2.11233 25.1195 3.56159C25.1746 3.70314 25.2247 3.86338 25.3245 4.18419C25.4144 4.4731 25.4594 4.61763 25.482 4.73133C25.722 5.93606 24.9396 7.1011 23.7971 7.23816C23.7056 7.24913 23.5889 7.25028 23.3822 7.25037M13.7376 7.25037H23.2619M23.2619 7.25037H23.3822M23.2619 7.25037L23.3051 7.25038C23.3321 7.25038 23.3578 7.25038 23.3822 7.25037M18.5 26.0015C15.2783 26.0015 12.6667 23.2031 12.6667 19.7511C12.6667 16.2991 15.2783 13.5007 18.5 13.5007C21.7217 13.5007 24.3333 16.2991 24.3333 19.7511C24.3333 23.2031 21.7217 26.0015 18.5 26.0015Z" stroke="white" stroke-width="2" stroke-linecap="round" stroke-linejoin="round"/>
</svg>
