<svg width="40" height="55" viewBox="0 0 40 55" fill="none" xmlns="http://www.w3.org/2000/svg">
<path d="M37.3023 44.8028C39.2749 40.1195 37.9508 36.946 37.3703 35.0303C36.249 31.3071 27.45 22.1849 23.1906 18.0893L8.55934 23.6154C9.48032 26.6245 12.0869 35.3899 12.1673 35.9511C12.3282 37.0735 13.5283 42.9084 14.4875 44.4758C15.4466 46.0432 17.3281 48.8969 21.2791 50.8414C25.2301 52.7859 34.8364 50.6568 37.3023 44.8028Z" fill="#3D98AE"/>
<path d="M12.1673 35.9511C12.3282 37.0735 13.5283 42.9084 14.4875 44.4758C15.4466 46.0432 17.3281 48.8969 21.2791 50.8414C25.2301 52.7859 34.8364 50.6568 37.3023 44.8028C39.2749 40.1195 37.9508 36.946 37.3703 35.0303C36.249 31.3071 27.45 22.1849 23.1906 18.0893L8.55934 23.6154C9.48032 26.6245 12.0869 35.3899 12.1673 35.9511ZM12.1673 35.9511C12.0064 34.8287 12.2572 36.5785 12.1673 35.9511Z" stroke="#3D98AE"/>
<path d="M5.11415 18.9697L19.5468 13.4553C18.7185 8.65443 15.5152 2.82592 9.47623 3.91488C3.43724 5.00385 1.45199 6.2354 0.970955 9.8164C0.586123 12.6812 3.62146 17.3947 5.11415 18.9697Z" fill="#3D98AE" stroke="#3D98AE"/>
</svg>
