<svg width="69" height="74" viewBox="0 0 69 74" fill="none" xmlns="http://www.w3.org/2000/svg">
<path d="M54.1592 20.6323C55.4019 25.6907 53.584 28.7949 52.7052 30.6954C51.0045 34.3898 40.7875 42.7058 35.8917 46.4019L22.1256 38.9372C23.5149 35.9531 27.4858 27.2513 27.6536 26.6837C27.9892 25.5484 30.0977 19.6908 31.3006 18.1948C32.5036 16.6987 34.8289 13.9912 39.0815 12.4709C43.334 10.9506 52.6058 14.3093 54.1592 20.6323Z" fill="#3D98AE"/>
<path d="M27.6536 26.6837C27.9892 25.5484 30.0977 19.6908 31.3006 18.1948C32.5036 16.6987 34.8289 13.9912 39.0815 12.4709C43.334 10.9506 52.6058 14.3093 54.1592 20.6323C55.4019 25.6907 53.584 28.7949 52.7052 30.6954C51.0045 34.3898 40.7875 42.7058 35.8917 46.4019L22.1256 38.9372C23.5149 35.9531 27.4858 27.2513 27.6536 26.6837ZM27.6536 26.6837C27.3179 27.8189 27.8412 26.0491 27.6536 26.6837Z" stroke="#3D98AE"/>
<path d="M17.958 43.2987L31.5273 50.7273C29.9516 55.5661 25.8416 61.1736 19.9741 59.3189C14.1066 57.4642 12.3137 55.9557 12.3906 52.2127C12.452 49.2184 16.2204 44.7378 17.958 43.2987Z" fill="#3D98AE" stroke="#3D98AE"/>
</svg>
