<svg width="22" height="19" viewBox="0 0 22 19" fill="none" xmlns="http://www.w3.org/2000/svg">
<path d="M13.5137 12.4709L11.8265 9.04667L9.85229 15.1286L7.18596 5.86755L5.9395 10.7412H2.75049L10.8394 19L18.9297 10.7412H15.1531L13.5137 12.4709Z" fill="#3D98AE"/>
<path d="M20.0702 1.64375C17.9239 -0.547917 14.4438 -0.547917 12.2975 1.64375C11.5538 2.40292 11.0682 3.32484 10.8393 4.29741C10.6117 3.32484 10.126 2.40292 9.38241 1.64375C7.23611 -0.547917 3.75603 -0.547917 1.60973 1.64375C-0.536576 3.83408 -0.536576 7.38735 1.60973 9.57768L1.76191 9.73303H5.17585L7.12894 2.09494L9.90904 11.7484L11.6398 6.41953L13.7716 10.7488L14.7349 9.73303H19.918L20.0701 9.57768C22.2165 7.38735 22.2165 3.83408 20.0702 1.64375Z" fill="#3D98AE"/>
</svg>
