<svg width="15" height="25" viewBox="0 0 15 25" fill="none" xmlns="http://www.w3.org/2000/svg">
<path d="M11.0392 11.242L13.0917 9.35638C14.3091 8.23831 15 6.67705 15 5.04249V2.3228C15.0004 1.68422 14.7329 1.09808 14.3053 0.680549C13.879 0.261266 13.2803 -0.000424766 12.6284 5.17572e-07H2.3712C1.71931 -0.000424766 1.12096 0.261266 0.694726 0.680501C0.266757 1.09808 -0.000385377 1.68417 5.28356e-07 2.32276V5.0424C5.28356e-07 6.67695 0.69053 8.23826 1.90792 9.35629L3.96045 11.2411C4.07391 11.3453 4.13787 11.4903 4.13787 11.6425V12.5513C4.13787 12.7036 4.07391 12.8481 3.96084 12.9518L1.90792 14.8375C0.69053 15.9552 5.28356e-07 17.5169 5.28356e-07 19.1514V21.871C-0.000433615 22.5096 0.266709 23.0957 0.694726 23.5133C1.12096 23.9325 1.71931 24.1942 2.3712 24.1938H12.6284C13.2803 24.1942 13.879 23.9325 14.3053 23.5133C14.7328 23.0957 15.0004 22.5096 15 21.871V19.1514C15 17.5169 14.309 15.9551 13.0917 14.8375L11.0392 12.9522C10.9261 12.8481 10.8617 12.7036 10.8617 12.5513V11.6425C10.8617 11.4903 10.9261 11.3454 11.0392 11.242ZM13.1893 21.8711C13.1889 22.0258 13.1283 22.1572 13.0252 22.2594C12.9209 22.3603 12.7863 22.4202 12.6284 22.4206H2.3712C2.21331 22.4201 2.07911 22.3603 1.97444 22.2594C1.87179 22.1572 1.81072 22.0258 1.81033 21.8711V19.1515C1.81033 18.0074 2.29397 16.9137 3.14609 16.1315L5.19863 14.2458C5.67686 13.807 5.94815 13.1932 5.94815 12.5514V11.6425C5.94815 11.0002 5.67686 10.3865 5.19819 9.94771L3.14609 8.06248C2.29392 7.28019 1.81033 6.18698 1.81033 5.04249V2.3228C1.81072 2.16814 1.87179 2.03668 1.97444 1.9341C2.07911 1.83359 2.21331 1.77372 2.3712 1.77334H12.6284C12.7863 1.77376 12.9209 1.83359 13.0252 1.9341C13.1282 2.03668 13.1889 2.1681 13.1893 2.3228V5.04245C13.1893 6.18693 12.7057 7.28015 11.854 8.06243L9.80142 9.94767C9.3228 10.3865 9.05146 11.0002 9.05146 11.6425V12.5513C9.05146 13.1932 9.3228 13.807 9.80142 14.2465L11.854 16.131C12.7057 16.9137 13.1893 18.0073 13.1893 19.1514V21.8711Z" fill="#3D98AE"/>
<path d="M7.49997 11.7504C7.98317 11.7504 8.37457 11.3666 8.37457 10.8933C8.52083 10.3238 8.82787 9.79884 9.27074 9.39265L11.3229 7.50779C11.9785 6.90583 12.3649 6.06901 12.4056 5.19312H2.59424C2.63495 6.06901 3.02134 6.90583 3.67661 7.50779L5.72871 9.39265C6.17202 9.79884 6.47867 10.3238 6.62492 10.8933C6.62497 11.3666 7.01676 11.7504 7.49997 11.7504Z" fill="#3D98AE"/>
<path d="M7.49999 12.6538C7.01679 12.6538 6.625 13.0376 6.625 13.5109C6.625 13.9839 7.01679 14.3677 7.49999 14.3677C7.98319 14.3677 8.3746 13.9839 8.3746 13.5109C8.3746 13.0376 7.98319 12.6538 7.49999 12.6538Z" fill="#3D98AE"/>
<path d="M7.49999 15.6946C7.01679 15.6946 6.625 16.0784 6.625 16.5518C6.625 17.0247 7.01679 17.4085 7.49999 17.4085C7.98319 17.4085 8.3746 17.0247 8.3746 16.5518C8.3746 16.0784 7.98319 15.6946 7.49999 15.6946Z" fill="#3D98AE"/>
<path d="M6.72237 18.4166L3.5127 21.5608H11.4872L8.27757 18.4166C7.84796 17.9962 7.15198 17.9962 6.72237 18.4166Z" fill="#3D98AE"/>
</svg>
