<svg width="27" height="24" viewBox="0 0 27 24" fill="none" xmlns="http://www.w3.org/2000/svg">
<path d="M26.2755 2.40412C26.0218 1.93025 25.5522 1.6107 25.0181 1.54903L23.3409 1.35562L20.0349 8.05505L18.0268 6.36844L14.7303 7.44284L18.0363 0.743464L11.8277 0.027081C10.1298 -0.168649 8.48877 0.709912 7.70994 2.23139L0.680624 15.9672C0.333781 16.6449 0.340863 17.4496 0.700373 18.1207C1.05942 18.7922 1.72529 19.2444 2.48159 19.332L14.5152 20.7899C14.8573 20.8323 15.1147 21.1231 15.1147 21.4681V21.5853C15.1147 21.781 15.031 21.9674 14.8842 22.0973C14.7378 22.2267 14.5425 22.2874 14.3487 22.2634L2.48164 20.8257C1.49668 20.7169 0.62934 20.1546 0.161574 19.3202C-0.320306 20.1635 0.257112 22.3918 2.1442 22.5922L14.1689 23.9796C15.4189 24.1245 16.6269 23.4746 17.1958 22.3518L26.2896 3.92415C26.5343 3.44604 26.5291 2.87803 26.2755 2.40412Z" fill="white"/>
</svg>
