<svg width="32" height="32" viewBox="0 0 32 32" fill="none" xmlns="http://www.w3.org/2000/svg">
<circle cx="16" cy="16" r="16" fill="#3D98AE"/>
<path d="M9.67962 8.32038L10.2929 7.70711C10.6834 7.31658 11.3166 7.31658 11.7071 7.70711L14.2929 10.2929C14.6834 10.6834 14.6834 11.3166 14.2929 11.7071L12.5005 13.4995C12.2016 13.7984 12.1275 14.255 12.3165 14.6331C13.4093 16.8186 15.1814 18.5907 17.3669 19.6835C17.745 19.8725 18.2016 19.7984 18.5005 19.4995L20.2929 17.7071C20.6834 17.3166 21.3166 17.3166 21.7071 17.7071L24.2929 20.2929C24.6834 20.6834 24.6834 21.3166 24.2929 21.7071L23.6796 22.3204C21.5683 24.4317 18.2257 24.6693 15.837 22.8777L14.6286 21.9714C12.885 20.6638 11.3362 19.115 10.0286 17.3714L9.12226 16.163C7.33072 13.7743 7.56827 10.4317 9.67962 8.32038Z" fill="white"/>
</svg>
