<svg width="25" height="24" viewBox="0 0 25 24" fill="none" xmlns="http://www.w3.org/2000/svg">
<path d="M14.6263 1.60115L16.3371 3.81525C14.6046 5.07269 13.0881 6.55817 11.8665 8.24238C9.78596 11.1058 8.55349 14.5497 8.55567 18.2287V23.9996H13.0035V18.2287C13.0056 15.5427 13.8852 13.0409 15.4673 10.8528C16.4202 9.53672 17.6364 8.3466 19.0561 7.33344L20.9276 9.75501L24.7266 0L14.6263 1.60115Z" fill="white"/>
<path d="M9.84735 8.70702C7.86453 5.97385 5.08737 3.77438 1.82538 2.30518L0 6.36151C2.60721 7.53366 4.76326 9.26945 6.24657 11.3175C6.9437 12.2812 7.48827 13.3112 7.87704 14.3911C8.29729 12.5114 9.02209 10.6958 10.0423 8.99751C9.97605 8.9014 9.91578 8.80148 9.84735 8.70702Z" fill="white"/>
</svg>
