<svg width="15" height="24" viewBox="0 0 15 24" fill="none" xmlns="http://www.w3.org/2000/svg">
<path d="M10.7045 10.9012L12.6948 9.07272C13.8753 7.98855 14.5452 6.47462 14.5452 4.88962V2.25238C14.5457 1.63316 14.2862 1.06479 13.8716 0.659916C13.4583 0.253345 12.8777 -0.000411888 12.2456 5.01881e-07H2.29931C1.66718 -0.000411888 1.08697 0.253345 0.673664 0.65987C0.25867 1.06479 -0.000373693 1.63311 5.12337e-07 2.25234V4.88953C5.12337e-07 6.47452 0.669595 7.9885 1.85007 9.07263L3.84038 10.9003C3.9504 11.0014 4.01242 11.1419 4.01242 11.2895V12.1708C4.01242 12.3184 3.9504 12.4585 3.84075 12.5592L1.85007 14.3876C0.669595 15.4715 5.12337e-07 16.9858 5.12337e-07 18.5707V21.2079C-0.000420469 21.8272 0.258623 22.3955 0.673664 22.8005C1.08697 23.2069 1.66718 23.4607 2.29931 23.4603H12.2455C12.8776 23.4607 13.4582 23.2069 13.8716 22.8005C14.2861 22.3955 14.5456 21.8272 14.5452 21.2079V18.5707C14.5452 16.9858 13.8752 15.4714 12.6948 14.3876L10.7045 12.5596C10.5948 12.4585 10.5324 12.3184 10.5324 12.1708V11.2895C10.5324 11.142 10.5949 11.0014 10.7045 10.9012ZM12.7895 21.208C12.789 21.358 12.7302 21.4855 12.6303 21.5846C12.5292 21.6824 12.3987 21.7405 12.2455 21.7408H2.29931C2.14621 21.7404 2.01608 21.6824 1.91458 21.5846C1.81504 21.4855 1.75582 21.358 1.75545 21.208V18.5708C1.75545 17.4614 2.22442 16.4009 3.05071 15.6424L5.04102 13.8139C5.50475 13.3884 5.76782 12.7933 5.76782 12.1709V11.2895C5.76782 10.6667 5.50475 10.0716 5.0406 9.64613L3.05071 7.81805C2.22437 7.05948 1.75545 5.99941 1.75545 4.88962V2.25238C1.75582 2.10241 1.81504 1.97494 1.91458 1.87546C2.01608 1.778 2.14621 1.71994 2.29931 1.71958H12.2455C12.3986 1.71999 12.5292 1.778 12.6303 1.87546C12.7302 1.97494 12.789 2.10237 12.7895 2.25238V4.88957C12.7895 5.99936 12.3205 7.05943 11.4946 7.818L9.50427 9.64608C9.04016 10.0716 8.77704 10.6667 8.77704 11.2895V12.1708C8.77704 12.7932 9.04016 13.3884 9.50427 13.8146L11.4946 15.642C12.3205 16.4009 12.7895 17.4614 12.7895 18.5707V21.208Z" fill="white"/>
<path d="M7.2736 11.3942C7.74215 11.3942 8.12169 11.022 8.12169 10.563C8.26352 10.0108 8.56124 9.50174 8.99069 9.10786L10.9806 7.28015C11.6164 6.69643 11.9911 5.88498 12.0306 5.03564H2.5166C2.55608 5.88498 2.93075 6.69643 3.56616 7.28015L5.55604 9.10786C5.98591 9.50174 6.28326 10.0108 6.42509 10.563C6.42513 11.022 6.80505 11.3942 7.2736 11.3942Z" fill="white"/>
<path d="M7.27327 12.2695C6.80472 12.2695 6.4248 12.6417 6.4248 13.1007C6.4248 13.5593 6.80472 13.9315 7.27327 13.9315C7.74182 13.9315 8.12136 13.5593 8.12136 13.1007C8.12136 12.6417 7.74182 12.2695 7.27327 12.2695Z" fill="white"/>
<path d="M7.27327 15.2178C6.80472 15.2178 6.4248 15.5899 6.4248 16.049C6.4248 16.5076 6.80472 16.8798 7.27327 16.8798C7.74182 16.8798 8.12136 16.5076 8.12136 16.049C8.12136 15.5899 7.74182 15.2178 7.27327 15.2178Z" fill="white"/>
<path d="M6.51861 17.858L3.40625 20.9068H11.139L8.02666 17.858C7.61008 17.4503 6.9352 17.4503 6.51861 17.858Z" fill="white"/>
</svg>
